<?xml version="1.0" encoding="utf-8"?>
<!-- Generator: Adobe Illustrator 17.0.0, SVG Export Plug-In . SVG Version: 6.00 Build 0)  -->
<!DOCTYPE svg PUBLIC "-//W3C//DTD SVG 1.1//EN" "http://www.w3.org/Graphics/SVG/1.1/DTD/svg11.dtd">
<svg version="1.1" id="Layer_1" xmlns="http://www.w3.org/2000/svg" xmlns:xlink="http://www.w3.org/1999/xlink" x="0px" y="0px"
	 width="485.75px" height="484.25px" viewBox="0 0 485.75 484.25" enable-background="new 0 0 485.75 484.25" xml:space="preserve">
<path fill="#FFFFFF" stroke="#000000" stroke-width="10" stroke-miterlimit="10" d="M244.667,457c-119.297,0-216-96.703-216-216
	s96.703-216,216-216s216,96.703,216,216S363.964,457,244.667,457z"/>
<path fill="none" stroke="#000000" stroke-width="10" stroke-miterlimit="10" d="M254.167,398.5"/>
<path fill="none" stroke="#000000" stroke-width="10" stroke-miterlimit="10" d="M254.167,83.5"/>
<path fill="none" stroke="#000000" stroke-width="10" stroke-miterlimit="10" d="M254.167,398.5"/>
<path fill="none" stroke="#000000" stroke-width="10" stroke-miterlimit="10" d="M317.167,295.5"/>
<path fill="none" stroke="#000000" stroke-width="10" stroke-miterlimit="10" d="M254.167,398.5"/>
<path fill="none" stroke="#000000" stroke-width="10" stroke-miterlimit="10" d="M200.167,295.5"/>
<path fill="none" stroke="#000000" stroke-width="10" stroke-miterlimit="10" d="M102.417,310.25"/>
<line fill="none" stroke="#000000" stroke-width="10" stroke-miterlimit="10" x1="232.614" y1="322.33" x2="110.19" y2="198.229"/>
<path fill="none" stroke="#000000" stroke-width="10" stroke-miterlimit="10" d="M406.375,301.625"/>
<path fill="none" stroke="#000000" stroke-width="10" stroke-miterlimit="10" d="M262.375,120.625"/>
<line fill="none" stroke="#000000" stroke-width="10" stroke-miterlimit="10" x1="254.525" y1="321.589" x2="378.242" y2="199.991"/>
<path fill="none" stroke="#000000" stroke-width="10" stroke-miterlimit="10" d="M255.88,143.438"/>
<path fill="none" stroke="#000000" stroke-width="10" stroke-miterlimit="10" d="M232.12,143.438"/>
<path fill="none" stroke="#000000" stroke-width="10" stroke-miterlimit="10" d="M254.875,320.858c0,0-11.375,14.917-23.375,0.042"
	/>
</svg>
