<?xml version="1.0" encoding="utf-8"?>
<!-- Generator: Adobe Illustrator 17.0.0, SVG Export Plug-In . SVG Version: 6.00 Build 0)  -->
<!DOCTYPE svg PUBLIC "-//W3C//DTD SVG 1.1//EN" "http://www.w3.org/Graphics/SVG/1.1/DTD/svg11.dtd">
<svg version="1.1" id="Layer_1" xmlns="http://www.w3.org/2000/svg" xmlns:xlink="http://www.w3.org/1999/xlink" x="0px" y="0px"
	 width="600px" height="600px" viewBox="0 0 600 600" enable-background="new 0 0 600 600" xml:space="preserve">
<path fill-rule="evenodd" clip-rule="evenodd" fill="#FFFFFF" d="M300.49,594.551C138.08,594.551,6.429,462.9,6.429,300.49
	S138.08,6.429,300.49,6.429S594.551,138.08,594.551,300.49S462.9,594.551,300.49,594.551z M147.992,191.578 M409.423,452.944
	 M191.556,452.988 M306.245,453.746V311.601h46.904l7.411-47.106h-54.315v-23.62c0-12.291,4.03-24.023,21.672-24.023h35.262v-47.016
	h-50.061c-42.091,0-53.576,27.717-53.576,66.136v28.501h-28.881v47.128h28.881v142.145L306.245,453.746L306.245,453.746z"/>
</svg>
