<?xml version="1.0" encoding="utf-8"?>
<!-- Generator: Adobe Illustrator 17.0.0, SVG Export Plug-In . SVG Version: 6.00 Build 0)  -->
<!DOCTYPE svg PUBLIC "-//W3C//DTD SVG 1.1//EN" "http://www.w3.org/Graphics/SVG/1.1/DTD/svg11.dtd">
<svg version="1.1" id="Layer_1" xmlns="http://www.w3.org/2000/svg" xmlns:xlink="http://www.w3.org/1999/xlink" x="0px" y="0px"
	 width="485.75px" height="484.25px" viewBox="2 -6 485.75 484.25" enable-background="new 2 -6 485.75 484.25"
	 xml:space="preserve">
<path fill="#FFFFFF" stroke="#000000" stroke-width="10" stroke-miterlimit="10" d="M245.667,453c-119.297,0-216-96.703-216-216
	s96.703-216,216-216s216,96.703,216,216S364.964,453,245.667,453z"/>
<path fill="none" stroke="#000000" stroke-width="10" stroke-miterlimit="10" d="M256.167,398.5"/>
<path fill="none" stroke="#000000" stroke-width="10" stroke-miterlimit="10" d="M256.167,83.5"/>
<path fill="none" stroke="#000000" stroke-width="10" stroke-miterlimit="10" d="M256.167,398.5"/>
<path fill="none" stroke="#000000" stroke-width="10" stroke-miterlimit="10" d="M319.167,295.5"/>
<path fill="none" stroke="#000000" stroke-width="10" stroke-miterlimit="10" d="M256.167,398.5"/>
<path fill="none" stroke="#000000" stroke-width="10" stroke-miterlimit="10" d="M202.167,295.5"/>
<path fill="none" stroke="#000000" stroke-width="10" stroke-miterlimit="10" d="M104.417,310.25"/>
<path fill="none" stroke="#000000" stroke-width="10" stroke-miterlimit="10" d="M408.375,301.625"/>
<path fill="none" stroke="#000000" stroke-width="10" stroke-miterlimit="10" d="M264.375,120.625"/>
<path fill="none" stroke="#000000" stroke-width="10" stroke-miterlimit="10" d="M239.618,216.459"/>
<path fill="none" stroke="#000000" stroke-width="10" stroke-miterlimit="10" d="M288.587,266.1"/>
<path fill="none" stroke="#000000" stroke-width="10" stroke-miterlimit="10" d="M239.618,216.459"/>
<path fill="none" stroke="#000000" stroke-width="10" stroke-miterlimit="10" d="M288.587,266.1"/>
<path fill="none" stroke="#000000" stroke-width="10" stroke-miterlimit="10" d="M228.039,236.397"/>
<path fill="none" stroke="#000000" stroke-width="10" stroke-miterlimit="10" d="M178.552,285.037"/>
<path fill="none" stroke="#000000" stroke-width="10" stroke-miterlimit="10" d="M278.951,215.793"/>
<path fill="none" stroke="#000000" stroke-width="10" stroke-miterlimit="10" d="M327.921,265.433"/>
<path fill="none" stroke="#000000" stroke-width="10" stroke-miterlimit="10" d="M147.372,207.731"/>
<path fill="none" stroke="#000000" stroke-width="10" stroke-miterlimit="10" d="M97.885,256.37"/>
<path fill="none" stroke="#000000" stroke-width="10" stroke-miterlimit="10" d="M267.39,238.328"/>
<path fill="none" stroke="#000000" stroke-width="10" stroke-miterlimit="10" d="M217.749,287.297"/>
<path fill="none" stroke="#000000" stroke-width="10" stroke-miterlimit="10" d="M266.785,244.749"/>
<path fill="none" stroke="#000000" stroke-width="10" stroke-miterlimit="10" d="M218.146,195.262"/>
<path fill="none" stroke="#000000" stroke-width="10" stroke-miterlimit="10" d="M213.375,124.625"/>
<path fill="none" stroke="#000000" stroke-width="10" stroke-miterlimit="10" d="M117.375,124.625"/>
<path fill="none" stroke="#000000" stroke-width="10" stroke-miterlimit="10" d="M122.375,120.625"/>
<path fill="none" stroke="#000000" stroke-width="10" stroke-miterlimit="10" d="M122.375,216.625"/>
<path fill="none" stroke="#000000" stroke-width="10" stroke-miterlimit="10" d="M122.375,250.625"/>
<path fill="none" stroke="#000000" stroke-width="10" stroke-miterlimit="10" d="M122.375,346.625"/>
<path fill="none" stroke="#000000" stroke-width="10" stroke-miterlimit="10" d="M118.375,341.625"/>
<path fill="none" stroke="#000000" stroke-width="10" stroke-miterlimit="10" d="M214.375,341.625"/>
<path fill="none" stroke="#000000" stroke-width="10" stroke-miterlimit="10" d="M275.375,340.625"/>
<path fill="none" stroke="#000000" stroke-width="10" stroke-miterlimit="10" d="M371.375,340.625"/>
<path fill="none" stroke="#000000" stroke-width="10" stroke-miterlimit="10" d="M366.375,344.625"/>
<path fill="none" stroke="#000000" stroke-width="10" stroke-miterlimit="10" d="M366.375,248.625"/>
<path fill="none" stroke="#000000" stroke-width="10" stroke-miterlimit="10" d="M371.375,124.625"/>
<path fill="none" stroke="#000000" stroke-width="10" stroke-miterlimit="10" d="M275.375,124.625"/>
<path fill="none" stroke="#000000" stroke-width="10" stroke-miterlimit="10" d="M366.375,119.625"/>
<path fill="none" stroke="#000000" stroke-width="10" stroke-miterlimit="10" d="M366.375,215.625"/>
<path d="M278.728,303.892c0-22.07-12.784-32.952-26.857-44.795l-11.516-8.959c-3.518-2.864-8.305-6.709-8.305-13.745
	s4.807-11.516,8.959-15.668c13.418-10.555,26.857-21.743,26.857-45.409c0-24.32-15.361-37.105-22.705-43.18l0,0h19.82l20.455-11.516
	h-65.884c-17.264,0-39.007,2.557-57.252,17.591c-13.745,11.823-20.455,28.145-20.455,42.852c0,24.934,19.186,50.216,53.08,50.216
	c3.211,0,6.709-0.327,10.248-0.634c-1.595,3.845-3.191,7.036-3.191,12.477c0,9.9,5.114,15.995,9.593,21.743
	c-14.38,0.961-41.257,2.557-61.077,14.707c-18.88,11.189-24.627,27.511-24.627,39.027c0,23.666,22.398,45.736,68.768,45.736
	C249.622,364.335,278.728,333.94,278.728,303.892z M209.96,222.34c-27.511,0-39.989-35.509-39.989-56.925
	c0-8.325,1.595-16.936,7.036-23.666c5.114-6.402,14.073-10.575,22.398-10.575c26.55,0,40.295,35.836,40.295,58.848
	c0,5.768-0.634,15.995-7.998,23.359C226.59,218.494,217.958,222.319,209.96,222.34z M210.288,350.897
	c-34.22,0-56.291-16.302-56.291-39.007c0-22.705,20.475-30.375,27.511-32.932c13.439-4.48,30.702-5.134,33.586-5.134
	c3.191,0,4.786,0,7.343,0.327c24.32,17.264,34.855,25.895,34.855,42.218C257.292,336.19,240.99,350.897,210.288,350.897z"/>
<polygon points="281.613,241.772 316.242,241.772 316.242,276.381 333.547,276.381 333.547,241.772 368.156,241.772 
	368.156,224.467 333.547,224.467 333.547,189.858 316.242,189.858 316.242,224.467 281.613,224.467 "/>
</svg>
