<?xml version="1.0" encoding="utf-8"?>
<!-- Generator: Adobe Illustrator 17.0.0, SVG Export Plug-In . SVG Version: 6.00 Build 0)  -->
<!DOCTYPE svg PUBLIC "-//W3C//DTD SVG 1.1//EN" "http://www.w3.org/Graphics/SVG/1.1/DTD/svg11.dtd">
<svg version="1.1" id="Layer_1" xmlns="http://www.w3.org/2000/svg" xmlns:xlink="http://www.w3.org/1999/xlink" x="0px" y="0px"
	 width="863.918px" height="204.124px" viewBox="0 0 863.918 204.124" enable-background="new 0 0 863.918 204.124"
	 xml:space="preserve">
<g>
	<path stroke="#000000" stroke-miterlimit="10" d="M147.273,32.082v2.675H95.695v131.045h-2.674V34.756H41.634v-2.675H147.273z"/>
	<path stroke="#000000" stroke-miterlimit="10" d="M169.623,22.53h2.674v81.761l-0.573,8.596
		c2.546-5.985,6.621-10.823,12.226-14.518c5.603-3.692,12.035-5.54,19.294-5.54c6.749,0,12.064,1.976,15.951,5.922
		c3.883,3.949,5.952,9.107,6.208,15.473v51.578h-2.674v-52.915c-0.257-4.585-1.943-8.563-5.063-11.939
		c-3.122-3.373-7.483-5.188-13.085-5.444c-4.331,0-8.438,0.702-12.321,2.102c-3.886,1.403-7.325,3.343-10.315,5.826
		c-2.994,2.483-5.349,5.477-7.068,8.979c-1.719,3.504-2.579,7.292-2.579,11.366v42.026h-2.674V22.53z"/>
	<path stroke="#000000" stroke-miterlimit="10" d="M253.482,70.288c0-1.018,0.382-1.91,1.146-2.674s1.654-1.146,2.674-1.146
		c1.018,0,1.91,0.382,2.674,1.146s1.146,1.657,1.146,2.674c0,1.021-0.382,1.91-1.146,2.674s-1.656,1.146-2.674,1.146
		c-1.021,0-1.91-0.382-2.674-1.146S253.482,71.309,253.482,70.288z M258.64,165.802h-2.674V94.167h2.674V165.802z"/>
	<path stroke="#000000" stroke-miterlimit="10" d="M329.891,95.503c-4.203,0.128-8.185,0.925-11.939,2.388
		c-3.758,1.466-7.068,3.439-9.934,5.922c-2.865,2.483-5.128,5.444-6.781,8.883c-1.657,3.438-2.483,7.134-2.483,11.08v42.026h-2.674
		V94.167h2.674v10.125l-0.573,8.596c2.674-6.113,6.812-10.918,12.417-14.423c5.603-3.501,12.035-5.378,19.294-5.635V95.503z"/>
	<path stroke="#000000" stroke-miterlimit="10" d="M347.464,129.889c0-5.092,0.955-9.934,2.865-14.518
		c1.91-4.585,4.552-8.531,7.928-11.844c3.373-3.311,7.289-5.952,11.748-7.928c4.457-1.973,9.295-2.961,14.519-2.961
		c3.946,0,7.736,0.573,11.366,1.719c3.629,1.146,6.939,2.77,9.934,4.871c2.991,2.102,5.603,4.585,7.832,7.45
		c2.227,2.865,4.042,6.018,5.444,9.456v-10.316V22.53h2.674v143.271H419.1v-10.315c0-2.035,0.03-4.041,0.096-6.018
		c0.063-1.973,0.095-3.979,0.095-6.018c-1.403,3.438-3.248,6.591-5.54,9.456c-2.292,2.866-4.937,5.349-7.928,7.45
		c-2.994,2.102-6.304,3.726-9.934,4.871c-3.63,1.146-7.42,1.72-11.366,1.72c-5.224,0-10.062-0.955-14.519-2.865
		c-4.459-1.91-8.375-4.552-11.748-7.928c-3.376-3.373-6.018-7.289-7.928-11.749C348.419,139.95,347.464,135.112,347.464,129.889z
		 M350.139,129.889c0,4.841,0.889,9.33,2.674,13.468c1.782,4.14,4.232,7.77,7.354,10.889c3.119,3.122,6.749,5.572,10.889,7.354
		c4.137,1.785,8.626,2.674,13.468,2.674c4.71,0,9.169-0.889,13.372-2.674c4.203-1.782,7.895-4.232,11.08-7.354
		c3.182-3.119,5.665-6.749,7.45-10.889c1.782-4.138,2.674-8.627,2.674-13.468c0-4.71-0.893-9.169-2.674-13.372
		c-1.785-4.203-4.269-7.895-7.45-11.08c-3.185-3.182-6.877-5.665-11.08-7.45c-4.203-1.782-8.662-2.674-13.372-2.674
		c-4.841,0-9.331,0.893-13.468,2.674c-4.14,1.785-7.77,4.269-10.889,7.45c-3.122,3.185-5.573,6.877-7.354,11.08
		C351.028,120.719,350.139,125.179,350.139,129.889z"/>
	<path stroke="#000000" stroke-miterlimit="10" d="M453.102,32.082h26.171c9.169,0,17.828,1.562,25.979,4.681
		c8.148,3.122,15.282,7.578,21.396,13.372c6.113,5.796,10.951,12.832,14.519,21.108c3.563,8.28,5.349,17.512,5.349,27.699
		c0,7.516-1.308,15.22-3.916,23.115c-2.612,7.898-6.848,15.091-12.704,21.586c-5.858,6.495-13.467,11.814-22.828,15.951
		c-9.36,4.14-20.792,6.208-34.289,6.208h-19.676V32.082z M455.775,34.756v128.18h18.721c12.608,0,23.336-1.973,32.188-5.922
		c8.851-3.946,16.047-9.041,21.587-15.282c5.539-6.238,9.551-13.115,12.034-20.631c2.483-7.513,3.726-14.9,3.726-22.16
		c0-9.805-1.689-18.688-5.063-26.648c-3.376-7.958-7.993-14.709-13.85-20.249c-5.859-5.54-12.641-9.805-20.345-12.799
		c-7.707-2.991-15.825-4.489-24.356-4.489H455.775z"/>
	<path stroke="#000000" stroke-miterlimit="10" d="M575.167,70.288c0-1.018,0.382-1.91,1.146-2.674
		c0.764-0.764,1.653-1.146,2.674-1.146c1.018,0,1.91,0.382,2.675,1.146c0.764,0.764,1.146,1.657,1.146,2.674
		c0,1.021-0.382,1.91-1.146,2.674c-0.765,0.764-1.657,1.146-2.675,1.146c-1.021,0-1.91-0.382-2.674-1.146
		C575.549,72.198,575.167,71.309,575.167,70.288z M580.324,165.802h-2.674V94.167h2.674V165.802z"/>
	<path stroke="#000000" stroke-miterlimit="10" d="M617.764,94.167h2.674v10.125l-0.572,8.596
		c2.546-5.985,6.62-10.823,12.226-14.518c5.603-3.692,12.035-5.54,19.294-5.54c6.238,0,11.301,1.752,15.187,5.253
		c3.884,3.504,6.143,8.119,6.781,13.85c2.675-5.731,6.782-10.346,12.322-13.85c5.539-3.501,11.811-5.253,18.816-5.253
		c6.748,0,12.064,1.976,15.95,5.922c3.884,3.949,5.952,9.107,6.209,15.473v51.578h-2.675v-52.915
		c-0.257-4.585-1.943-8.563-5.063-11.939c-3.122-3.373-7.482-5.188-13.085-5.444c-4.203,0-8.215,0.668-12.035,2.006
		s-7.196,3.218-10.124,5.635c-2.932,2.421-5.319,5.286-7.164,8.597c-1.848,3.313-2.836,6.942-2.961,10.889v43.172h-2.674v-52.915
		c-0.257-4.585-1.943-8.563-5.063-11.939c-3.122-3.373-7.483-5.188-13.086-5.444c-4.331,0-8.438,0.702-12.321,2.102
		c-3.886,1.403-7.324,3.343-10.315,5.826c-2.994,2.483-5.349,5.477-7.068,8.979c-1.719,3.504-2.579,7.292-2.579,11.366v42.026
		h-2.674V94.167z"/>
	<path stroke="#000000" stroke-miterlimit="10" d="M823.691,116.326c-10.826,4.459-21.557,8.82-32.188,13.085
		c-10.635,4.269-21.365,8.629-32.188,13.085c2.546,6.495,6.687,11.749,12.417,15.76c5.73,4.012,12.288,6.018,19.676,6.018
		c4.585,0,8.913-0.826,12.99-2.483c4.074-1.653,7.642-3.945,10.697-6.877c0.254,0.382,0.541,0.734,0.86,1.051
		c0.316,0.319,0.603,0.669,0.859,1.051c-3.313,3.057-7.134,5.478-11.462,7.259c-4.331,1.782-8.979,2.675-13.945,2.675
		c-5.224,0-10.062-0.955-14.518-2.865c-4.46-1.91-8.376-4.552-11.749-7.928c-3.376-3.373-6.018-7.289-7.928-11.749
		c-1.91-4.456-2.865-9.294-2.865-14.518c0-5.092,0.955-9.934,2.865-14.518c1.91-4.585,4.552-8.531,7.928-11.844
		c3.373-3.311,7.289-5.952,11.749-7.928c4.456-1.973,9.294-2.961,14.518-2.961c7.385,0,13.976,2.197,19.771,6.59
		C816.973,103.622,821.143,109.323,823.691,116.326z M791.407,95.313c-4.841,0-9.33,0.893-13.468,2.674
		c-4.14,1.785-7.77,4.269-10.889,7.45c-3.122,3.185-5.572,6.877-7.354,11.08c-1.784,4.203-2.674,8.662-2.674,13.372
		c0,3.695,0.444,7.068,1.337,10.124c10.315-4.202,20.631-8.372,30.946-12.512c10.316-4.137,20.632-8.31,30.947-12.513
		c-2.549-5.856-6.399-10.602-11.558-14.231C803.538,97.127,797.774,95.313,791.407,95.313z"/>
</g>
</svg>
