<?xml version="1.0" encoding="utf-8"?>
<!-- Generator: Adobe Illustrator 17.0.0, SVG Export Plug-In . SVG Version: 6.00 Build 0)  -->
<!DOCTYPE svg PUBLIC "-//W3C//DTD SVG 1.1//EN" "http://www.w3.org/Graphics/SVG/1.1/DTD/svg11.dtd">
<svg version="1.1" id="Layer_1" xmlns="http://www.w3.org/2000/svg" xmlns:xlink="http://www.w3.org/1999/xlink" x="0px" y="0px"
	 width="600px" height="600px" viewBox="0 0 600 600" enable-background="new 0 0 600 600" xml:space="preserve">
<path fill-rule="evenodd" clip-rule="evenodd" fill="#FFFFFF" d="M300.479,593.042c-161.583,0-292.563-130.98-292.563-292.563
	S138.897,7.917,300.479,7.917s292.563,130.98,292.563,292.563S462.062,593.042,300.479,593.042z M148.758,192.123 M408.857,452.157
	 M192.101,452.2 M309.473,167.2c-77.938,0-117.254,55.625-117.254,102.002c0,28.09,10.67,53.074,33.591,62.374
	c3.782,1.457,7.132,0.069,8.224-4.077c0.764-2.862,2.55-10.098,3.35-13.116c1.092-4.095,0.677-5.552-2.359-9.092
	c-6.61-7.755-10.827-17.785-10.827-32.011c0-41.276,31.023-78.198,80.765-78.198c44,0,68.257,26.772,68.257,62.582
	c0,47.054-20.924,86.751-51.981,86.751c-17.193,0-30.051-14.106-25.921-31.421c4.928-20.647,14.469-42.977,14.469-57.933
	c0-13.359-7.218-24.534-22.104-24.534c-17.558,0-31.629,18.096-31.629,42.282c0,15.407,5.223,25.835,5.223,25.835
	s-17.94,75.735-21.098,88.972c-6.281,26.424-0.937,58.783-0.486,62.045c0.26,1.943,2.776,2.412,3.886,0.937
	c1.632-2.099,22.521-27.779,29.617-53.439c2.03-7.236,11.538-44.886,11.538-44.886c5.709,10.827,22.365,20.369,40.08,20.369
	c52.727,0,88.521-47.834,88.521-111.909C413.333,212.31,372.109,167.2,309.473,167.2z"/>
</svg>
