<?xml version="1.0" encoding="utf-8"?>
<!-- Generator: Adobe Illustrator 17.0.0, SVG Export Plug-In . SVG Version: 6.00 Build 0)  -->
<!DOCTYPE svg PUBLIC "-//W3C//DTD SVG 1.1//EN" "http://www.w3.org/Graphics/SVG/1.1/DTD/svg11.dtd">
<svg version="1.1" id="Layer_1" xmlns="http://www.w3.org/2000/svg" xmlns:xlink="http://www.w3.org/1999/xlink" x="0px" y="0px"
	 width="600px" height="600px" viewBox="0 0 600 600" enable-background="new 0 0 600 600" xml:space="preserve">
<path fill-rule="evenodd" clip-rule="evenodd" fill="#FFFFFF" d="M301.327,596.776c-160.72,0-291-130.28-291-291s130.28-291,291-291
	s291,130.28,291,291S462.046,596.776,301.327,596.776z M150.416,197.998 M409.126,456.643 M193.527,456.686 M451.89,228.348
	c-4.86,2.887-19.434,8.643-33.028,10.088c8.717-5.06,21.62-21.637,24.807-34.806c-8.378,5.757-27.624,14.154-37.127,14.154
	c0,0,0,0.027,0.019,0.044c-10.848-12.21-26.097-19.815-43.032-19.815c-32.849,0-59.504,28.688-59.504,64.084
	c0,4.913,0.542,9.685,1.528,14.278h-0.019c-44.576-1.233-96.686-25.291-126.053-66.478c-18.028,33.635-2.43,71.036,18.045,84.665
	c-6.99,0.582-19.91-0.863-25.984-7.219c-0.423,22.305,9.559,51.884,45.898,62.606c-7.01,4.067-19.369,2.906-24.77,2.007
	c1.901,18.874,26.407,43.519,53.185,43.519c-9.544,11.869-42.11,33.471-82.411,26.587c27.378,17.958,59.296,28.345,93.079,28.345
	c96.004,0,170.562-83.783,166.548-187.143c0-0.125-0.034-0.247-0.034-0.353c0-0.282,0.034-0.563,0.034-0.81
	c0-0.317-0.034-0.634-0.034-0.968C431.768,254.721,443.491,243.347,451.89,228.348z"/>
</svg>
