<?xml version="1.0" encoding="utf-8"?>
<!-- Generator: Adobe Illustrator 17.0.0, SVG Export Plug-In . SVG Version: 6.00 Build 0)  -->
<!DOCTYPE svg PUBLIC "-//W3C//DTD SVG 1.1//EN" "http://www.w3.org/Graphics/SVG/1.1/DTD/svg11.dtd">
<svg version="1.1" id="Layer_1" xmlns="http://www.w3.org/2000/svg" xmlns:xlink="http://www.w3.org/1999/xlink" x="0px" y="0px"
	 width="485.75px" height="484.25px" viewBox="2 -6 485.75 484.25" enable-background="new 2 -6 485.75 484.25"
	 xml:space="preserve">
<path fill="#FFFFFF" stroke="#000000" stroke-width="10" stroke-miterlimit="10" d="M245.667,453c-119.297,0-216-96.703-216-216
	s96.703-216,216-216s216,96.703,216,216S364.964,453,245.667,453z"/>
<path fill="none" stroke="#000000" stroke-width="10" stroke-miterlimit="10" d="M256.167,398.5"/>
<path fill="none" stroke="#000000" stroke-width="10" stroke-miterlimit="10" d="M256.167,83.5"/>
<path fill="none" stroke="#000000" stroke-width="10" stroke-miterlimit="10" d="M256.167,398.5"/>
<path fill="none" stroke="#000000" stroke-width="10" stroke-miterlimit="10" d="M319.167,295.5"/>
<path fill="none" stroke="#000000" stroke-width="10" stroke-miterlimit="10" d="M256.167,398.5"/>
<path fill="none" stroke="#000000" stroke-width="10" stroke-miterlimit="10" d="M202.167,295.5"/>
<path fill="none" stroke="#000000" stroke-width="10" stroke-miterlimit="10" d="M104.417,310.25"/>
<path fill="none" stroke="#000000" stroke-width="10" stroke-miterlimit="10" d="M408.375,301.625"/>
<path fill="none" stroke="#000000" stroke-width="10" stroke-miterlimit="10" d="M264.375,120.625"/>
<path fill="none" stroke="#000000" stroke-width="10" stroke-miterlimit="10" d="M239.618,216.459"/>
<path fill="none" stroke="#000000" stroke-width="10" stroke-miterlimit="10" d="M288.587,266.1"/>
<path fill="none" stroke="#000000" stroke-width="10" stroke-miterlimit="10" d="M239.618,216.459"/>
<path fill="none" stroke="#000000" stroke-width="10" stroke-miterlimit="10" d="M288.587,266.1"/>
<path fill="none" stroke="#000000" stroke-width="10" stroke-miterlimit="10" d="M228.039,236.397"/>
<path fill="none" stroke="#000000" stroke-width="10" stroke-miterlimit="10" d="M178.552,285.037"/>
<path fill="none" stroke="#000000" stroke-width="10" stroke-miterlimit="10" d="M278.951,215.793"/>
<path fill="none" stroke="#000000" stroke-width="10" stroke-miterlimit="10" d="M327.921,265.433"/>
<path fill="none" stroke="#000000" stroke-width="10" stroke-miterlimit="10" d="M147.372,207.731"/>
<path fill="none" stroke="#000000" stroke-width="10" stroke-miterlimit="10" d="M97.885,256.37"/>
<path fill="none" stroke="#000000" stroke-width="10" stroke-miterlimit="10" d="M267.39,238.328"/>
<path fill="none" stroke="#000000" stroke-width="10" stroke-miterlimit="10" d="M217.749,287.297"/>
<path fill="none" stroke="#000000" stroke-width="10" stroke-miterlimit="10" d="M266.785,244.749"/>
<path fill="none" stroke="#000000" stroke-width="10" stroke-miterlimit="10" d="M218.146,195.262"/>
<path fill="none" stroke="#000000" stroke-width="10" stroke-miterlimit="10" d="M213.375,124.625"/>
<path fill="none" stroke="#000000" stroke-width="10" stroke-miterlimit="10" d="M117.375,124.625"/>
<path fill="none" stroke="#000000" stroke-width="10" stroke-miterlimit="10" d="M122.375,120.625"/>
<path fill="none" stroke="#000000" stroke-width="10" stroke-miterlimit="10" d="M122.375,216.625"/>
<path fill="none" stroke="#000000" stroke-width="10" stroke-miterlimit="10" d="M122.375,250.625"/>
<path fill="none" stroke="#000000" stroke-width="10" stroke-miterlimit="10" d="M122.375,346.625"/>
<path fill="none" stroke="#000000" stroke-width="10" stroke-miterlimit="10" d="M118.375,341.625"/>
<path fill="none" stroke="#000000" stroke-width="10" stroke-miterlimit="10" d="M214.375,341.625"/>
<path fill="none" stroke="#000000" stroke-width="10" stroke-miterlimit="10" d="M275.375,340.625"/>
<path fill="none" stroke="#000000" stroke-width="10" stroke-miterlimit="10" d="M371.375,340.625"/>
<path fill="none" stroke="#000000" stroke-width="10" stroke-miterlimit="10" d="M366.375,344.625"/>
<path fill="none" stroke="#000000" stroke-width="10" stroke-miterlimit="10" d="M366.375,248.625"/>
<path fill="none" stroke="#000000" stroke-width="10" stroke-miterlimit="10" d="M371.375,124.625"/>
<path fill="none" stroke="#000000" stroke-width="10" stroke-miterlimit="10" d="M275.375,124.625"/>
<path fill="none" stroke="#000000" stroke-width="10" stroke-miterlimit="10" d="M366.375,119.625"/>
<path fill="none" stroke="#000000" stroke-width="10" stroke-miterlimit="10" d="M366.375,215.625"/>
<path d="M356.8,174.684c-3.666,2.178-14.661,6.52-24.916,7.61c6.576-3.817,16.31-16.323,18.714-26.257
	c-6.32,4.343-20.839,10.678-28.008,10.678c0,0,0,0.02,0.014,0.033c-8.184-9.211-19.687-14.948-32.463-14.948
	c-24.781,0-44.889,21.642-44.889,48.344c0,3.706,0.409,7.306,1.153,10.771h-0.014c-33.628-0.93-72.939-19.079-95.093-50.15
	c-13.6,25.374-1.833,53.589,13.613,63.87c-5.273,0.439-15.02-0.651-19.602-5.446c-0.319,16.827,7.211,39.141,34.625,47.229
	c-5.288,3.068-14.612,2.192-18.686,1.514c1.434,14.238,19.921,32.83,40.122,32.83c-7.2,8.954-31.767,25.25-62.17,20.057
	c20.654,13.547,44.732,21.383,70.218,21.383c72.424,0,128.67-63.205,125.642-141.179c0-0.094-0.026-0.186-0.026-0.266
	c0-0.213,0.026-0.425,0.026-0.611c0-0.239-0.026-0.478-0.026-0.73C341.62,194.579,350.464,185.999,356.8,174.684z"/>
</svg>
