<?xml version="1.0" encoding="utf-8"?>
<!-- Generator: Adobe Illustrator 17.0.0, SVG Export Plug-In . SVG Version: 6.00 Build 0)  -->
<!DOCTYPE svg PUBLIC "-//W3C//DTD SVG 1.1//EN" "http://www.w3.org/Graphics/SVG/1.1/DTD/svg11.dtd">
<svg version="1.1" id="Layer_1" xmlns="http://www.w3.org/2000/svg" xmlns:xlink="http://www.w3.org/1999/xlink" x="0px" y="0px"
	 width="600px" height="600px" viewBox="0 0 600 600" enable-background="new 0 0 600 600" xml:space="preserve">
<g id="Layer_1_1_">
	<path fill="#FFFFFF" d="M604.667,606.5H-4.5V-2.667h609.167V606.5z M594.729,302.767c0-162.721-131.902-294.623-294.623-294.623
		S5.482,140.046,5.482,302.767S137.385,597.39,300.105,597.39S594.729,465.487,594.729,302.767z"/>
</g>
<g id="Layer_2">
	<line fill="none" stroke="#000000" stroke-width="8" stroke-miterlimit="10" x1="471.615" y1="374.33" x2="313.591" y2="214.143"/>
	
		<line fill="none" stroke="#000000" stroke-width="8" stroke-miterlimit="10" x1="129.442" y1="373.374" x2="289.135" y2="216.417"/>
	<path fill="none" stroke="#000000" stroke-width="8" stroke-miterlimit="10" d="M286.885,218.365c0,0,14.683-19.255,30.172-0.054"
		/>
</g>
<g>
	<path fill="none" stroke="#020101" stroke-width="8" stroke-miterlimit="10" d="M301.5,595C140.504,595,10,464.496,10,303.5
		S140.504,12,301.5,12S593,142.504,593,303.5S462.496,595,301.5,595z"/>
	<g>
		<path fill="#010101" stroke="#020101" stroke-width="8" stroke-miterlimit="10" d="M157.628,200.463"/>
		<path fill="#010101" stroke="#020101" stroke-width="8" stroke-miterlimit="10" d="M402.557,445.331"/>
		<path fill="#010101" stroke="#020101" stroke-width="8" stroke-miterlimit="10" d="M198.443,445.372"/>
	</g>
</g>
</svg>
