<?xml version="1.0" encoding="utf-8"?>
<!-- Generator: Adobe Illustrator 17.0.0, SVG Export Plug-In . SVG Version: 6.00 Build 0)  -->
<!DOCTYPE svg PUBLIC "-//W3C//DTD SVG 1.1//EN" "http://www.w3.org/Graphics/SVG/1.1/DTD/svg11.dtd">
<svg version="1.1" id="Layer_1" xmlns="http://www.w3.org/2000/svg" xmlns:xlink="http://www.w3.org/1999/xlink" x="0px" y="0px"
	 width="485.75px" height="484.25px" viewBox="0 0 485.75 484.25" enable-background="new 0 0 485.75 484.25" xml:space="preserve">
<path fill="none" stroke="#000000" stroke-width="10" stroke-miterlimit="10" d="M242.667,476c-129.238,0-234-104.762-234-234
	s104.762-234,234-234s234,104.762,234,234S371.905,476,242.667,476z"/>
<path fill="none" stroke="#000000" stroke-width="10" stroke-miterlimit="10" d="M254.167,398.5"/>
<path fill="none" stroke="#000000" stroke-width="10" stroke-miterlimit="10" d="M252.959,71.375"/>
<path fill="none" stroke="#000000" stroke-width="10" stroke-miterlimit="10" d="M254.167,398.5"/>
<path fill="none" stroke="#000000" stroke-width="10" stroke-miterlimit="10" d="M317.167,295.5"/>
<path fill="none" stroke="#000000" stroke-width="10" stroke-miterlimit="10" d="M254.167,398.5"/>
<path fill="none" stroke="#000000" stroke-width="10" stroke-miterlimit="10" d="M194.459,301.042"/>
<path fill="none" stroke="#000000" stroke-width="10" stroke-miterlimit="10" d="M88.563,317.021"/>
<line fill="none" stroke="#000000" stroke-width="14" stroke-miterlimit="10" x1="229.814" y1="319.393" x2="104.52" y2="185.49"/>
<path fill="none" stroke="#000000" stroke-width="10" stroke-miterlimit="10" d="M406.375,301.625"/>
<path fill="none" stroke="#000000" stroke-width="10" stroke-miterlimit="10" d="M262.375,120.625"/>
<line fill="none" stroke="#000000" stroke-width="14" stroke-miterlimit="10" x1="249.518" y1="318.973" x2="373.301" y2="188.128"/>
<path fill="none" stroke="#000000" stroke-width="10" stroke-miterlimit="10" d="M254.814,136.308"/>
<path fill="none" stroke="#000000" stroke-width="10" stroke-miterlimit="10" d="M229.074,136.308"/>
<path fill="none" stroke="#000000" stroke-width="14" stroke-miterlimit="10" d="M250.875,316.858c0,0-11.375,14.917-23.375,0.042"
	/>
</svg>
