<?xml version="1.0" encoding="utf-8"?>
<!-- Generator: Adobe Illustrator 17.0.0, SVG Export Plug-In . SVG Version: 6.00 Build 0)  -->
<!DOCTYPE svg PUBLIC "-//W3C//DTD SVG 1.1//EN" "http://www.w3.org/Graphics/SVG/1.1/DTD/svg11.dtd">
<svg version="1.1" id="Layer_1" xmlns="http://www.w3.org/2000/svg" xmlns:xlink="http://www.w3.org/1999/xlink" x="0px" y="0px"
	 width="600px" height="600px" viewBox="0 0 600 600" enable-background="new 0 0 600 600" xml:space="preserve">
<g>
	<path fill="none" stroke="#100A0D" stroke-width="5" stroke-miterlimit="10" d="M300.556,593.778
		c-161.947,0-293.222-131.275-293.222-293.222S138.609,7.333,300.556,7.333s293.222,131.275,293.222,293.222
		S462.502,593.778,300.556,593.778z"/>
</g>
<line fill="none" stroke="#100A0D" stroke-width="5" stroke-miterlimit="10" x1="297.444" y1="7.667" x2="297.444" y2="594.333"/>
<line fill="none" stroke="#100A0D" stroke-width="5" stroke-miterlimit="10" x1="595" y1="290" x2="8.333" y2="290"/>
<line fill="none" stroke="#100A0D" stroke-width="5" stroke-miterlimit="10" x1="97.026" y1="89.582" x2="511.862" y2="504.418"/>
<line fill="none" stroke="#100A0D" stroke-width="5" stroke-miterlimit="10" x1="501.862" y1="87.582" x2="87.026" y2="502.418"/>
<g>
	<path fill="#F15F22" d="M458.588,114.439c11.088-11.117,10.378-28.403-2.53-37.331c-35.625-24.679-76.623-42.05-120.863-50.182
		c-15.467-2.843-28.176,8.871-28.176,24.593v214.943L458.588,114.439z"/>
</g>
<g>
	<path fill="#DC1F26" d="M287.873,51.985c-0.02-15.701-12.746-27.422-28.186-24.608c-42.641,7.74-83.915,24.447-120.947,49.979
		c-12.947,8.926-13.651,26.196-2.533,37.313l151.988,151.988L287.873,51.985z"/>
</g>
<g>
	<path fill="#048E8A" d="M127.631,475.177c-11.915,11.991-11.496,30.967,1.956,40.998c37.124,27.729,80.06,47.54,126.593,57.276
		c16.269,3.404,29.905-9.212,30.206-26.46l4.116-235.791L127.631,475.177z"/>
</g>
<g>
	<path fill="#18A54A" d="M309.255,548.479c0.322,17.224,13.977,29.847,30.218,26.475c44.853-9.276,88.092-28.364,126.685-57.055
		c13.493-10.031,13.905-28.988,1.959-40.979l-163.312-163.93L309.255,548.479z"/>
</g>
<g>
	<path fill="#5B2C88" d="M119.213,131.699c-11.271-10.855-28.798-10.159-37.849,2.477c-25.021,34.876-42.635,75.012-50.879,118.321
		c-2.883,15.142,8.994,27.583,24.935,27.583h217.929L119.213,131.699z"/>
</g>
<g>
	<path fill="#283A90" d="M55.902,302.983c-16.211,0.53-28.724,14.048-26.319,29.897c6.609,43.772,22.519,85.843,47.679,123.247
		c8.796,13.077,26.602,13.244,38.441,1.406l161.841-161.841L55.902,302.983z"/>
</g>
<g>
	<path fill="#A0B039" d="M481.219,459.779c11.912,11.858,30.594,11.26,40.353-2.346c26.978-37.552,46.109-80.868,55.286-127.704
		c3.209-16.375-9.334-29.956-26.32-30.098l-232.216-1.941L481.219,459.779z"/>
</g>
<g>
	<path fill="#E48325" d="M548.065,279.976c16.389,0.025,28.034-12.707,24.38-28.204c-10.056-42.799-29.408-84.252-57.776-121.475
		c-9.918-13.014-27.977-13.77-39.067-2.65L323.994,279.675L548.065,279.976z"/>
</g>
</svg>
