<?xml version="1.0" encoding="utf-8"?>
<!-- Generator: Adobe Illustrator 17.0.0, SVG Export Plug-In . SVG Version: 6.00 Build 0)  -->
<!DOCTYPE svg PUBLIC "-//W3C//DTD SVG 1.1//EN" "http://www.w3.org/Graphics/SVG/1.1/DTD/svg11.dtd">
<svg version="1.1" id="Layer_1" xmlns="http://www.w3.org/2000/svg" xmlns:xlink="http://www.w3.org/1999/xlink" x="0px" y="0px"
	 width="600px" height="600px" viewBox="0 0 600 600" enable-background="new 0 0 600 600" xml:space="preserve">
<g id="Layer_1_1_">
	<path fill="#FFFFFF" d="M604.667,606.5h-610v-610h610V606.5z M594.715,302.352c0-162.943-132.083-295.026-295.026-295.026
		S4.663,139.408,4.663,302.352s132.083,295.026,295.026,295.026S594.715,465.294,594.715,302.352z"/>
</g>
<g id="Layer_2">
	
		<line fill="none" stroke="#000000" stroke-width="8" stroke-miterlimit="10" x1="129.442" y1="237.791" x2="287.466" y2="397.978"/>
	
		<line fill="none" stroke="#000000" stroke-width="8" stroke-miterlimit="10" x1="471.615" y1="238.747" x2="311.922" y2="395.704"/>
	<path fill="none" stroke="#000000" stroke-width="8" stroke-miterlimit="10" d="M314.172,393.756c0,0-14.683,19.255-30.172,0.054"
		/>
</g>
<g>
	<path fill="none" stroke="#020101" stroke-width="8" stroke-miterlimit="10" d="M301,596C139.176,596,8,464.824,8,303
		S139.176,10,301,10s293,131.176,293,293S462.824,596,301,596z"/>
	<g>
		<path fill="#010101" stroke="#020101" stroke-width="8" stroke-miterlimit="10" d="M157.628,200.463"/>
		<path fill="#010101" stroke="#020101" stroke-width="8" stroke-miterlimit="10" d="M402.557,445.331"/>
		<path fill="#010101" stroke="#020101" stroke-width="8" stroke-miterlimit="10" d="M198.443,445.372"/>
	</g>
</g>
</svg>
