<?xml version="1.0" encoding="utf-8"?>
<!-- Generator: Adobe Illustrator 17.0.0, SVG Export Plug-In . SVG Version: 6.00 Build 0)  -->
<!DOCTYPE svg PUBLIC "-//W3C//DTD SVG 1.1//EN" "http://www.w3.org/Graphics/SVG/1.1/DTD/svg11.dtd">
<svg version="1.1" id="Layer_1" xmlns="http://www.w3.org/2000/svg" xmlns:xlink="http://www.w3.org/1999/xlink" x="0px" y="0px"
	 width="600px" height="600px" viewBox="0 0 600 600" enable-background="new 0 0 600 600" xml:space="preserve">
<g>
	<path fill="none" stroke="#FFFFFF" stroke-width="5" stroke-miterlimit="10" d="M300,596C136.519,596,4,463.481,4,300
		S136.519,4,300,4s296,132.519,296,296S463.481,596,300,596z"/>
	<g>
		<path fill="#010101" stroke="#FDFDFE" stroke-width="5" stroke-miterlimit="10" d="M188.984,221"/>
		<path fill="#010101" stroke="#FDFDFE" stroke-width="5" stroke-miterlimit="10" d="M381.016,412.984"/>
		<path fill="#010101" stroke="#FDFDFE" stroke-width="5" stroke-miterlimit="10" d="M220.984,413.016"/>
	</g>
</g>
<path fill="#FFFFFF" d="M307.743,454.924V311.754h47.242l7.463-47.445h-54.707v-23.791c0-12.381,4.059-24.197,21.829-24.197h35.516
	v-47.355h-50.421c-42.394,0-53.962,27.918-53.962,66.613v28.706h-29.09v47.468h29.09v143.171L307.743,454.924L307.743,454.924z"/>
</svg>
