<?xml version="1.0" encoding="utf-8"?>
<!-- Generator: Adobe Illustrator 17.0.0, SVG Export Plug-In . SVG Version: 6.00 Build 0)  -->
<!DOCTYPE svg PUBLIC "-//W3C//DTD SVG 1.1//EN" "http://www.w3.org/Graphics/SVG/1.1/DTD/svg11.dtd">
<svg version="1.1" id="Layer_1" xmlns="http://www.w3.org/2000/svg" xmlns:xlink="http://www.w3.org/1999/xlink" x="0px" y="0px"
	 width="485.75px" height="484.25px" viewBox="2 -6 485.75 484.25" enable-background="new 2 -6 485.75 484.25"
	 xml:space="preserve">
<path fill="#FFFFFF" stroke="#000000" stroke-width="10" stroke-miterlimit="10" d="M245.667,453c-119.297,0-216-96.703-216-216
	s96.703-216,216-216s216,96.703,216,216S364.964,453,245.667,453z"/>
<path fill="none" stroke="#000000" stroke-width="10" stroke-miterlimit="10" d="M256.167,398.5"/>
<path fill="none" stroke="#000000" stroke-width="10" stroke-miterlimit="10" d="M256.167,83.5"/>
<path fill="none" stroke="#000000" stroke-width="10" stroke-miterlimit="10" d="M256.167,398.5"/>
<path fill="none" stroke="#000000" stroke-width="10" stroke-miterlimit="10" d="M319.167,295.5"/>
<path fill="none" stroke="#000000" stroke-width="10" stroke-miterlimit="10" d="M256.167,398.5"/>
<path fill="none" stroke="#000000" stroke-width="10" stroke-miterlimit="10" d="M202.167,295.5"/>
<path fill="none" stroke="#000000" stroke-width="10" stroke-miterlimit="10" d="M104.417,310.25"/>
<path fill="none" stroke="#000000" stroke-width="10" stroke-miterlimit="10" d="M408.375,301.625"/>
<path fill="none" stroke="#000000" stroke-width="10" stroke-miterlimit="10" d="M264.375,120.625"/>
<path fill="none" stroke="#000000" stroke-width="10" stroke-miterlimit="10" d="M239.618,216.459"/>
<path fill="none" stroke="#000000" stroke-width="10" stroke-miterlimit="10" d="M288.587,266.1"/>
<path fill="none" stroke="#000000" stroke-width="10" stroke-miterlimit="10" d="M239.618,216.459"/>
<path fill="none" stroke="#000000" stroke-width="10" stroke-miterlimit="10" d="M288.587,266.1"/>
<path fill="none" stroke="#000000" stroke-width="10" stroke-miterlimit="10" d="M228.039,236.397"/>
<path fill="none" stroke="#000000" stroke-width="10" stroke-miterlimit="10" d="M178.552,285.037"/>
<path fill="none" stroke="#000000" stroke-width="10" stroke-miterlimit="10" d="M278.951,215.793"/>
<path fill="none" stroke="#000000" stroke-width="10" stroke-miterlimit="10" d="M327.921,265.433"/>
<path fill="none" stroke="#000000" stroke-width="10" stroke-miterlimit="10" d="M147.372,207.731"/>
<path fill="none" stroke="#000000" stroke-width="10" stroke-miterlimit="10" d="M97.885,256.37"/>
<path fill="none" stroke="#000000" stroke-width="10" stroke-miterlimit="10" d="M267.39,238.328"/>
<path fill="none" stroke="#000000" stroke-width="10" stroke-miterlimit="10" d="M217.749,287.297"/>
<path fill="none" stroke="#000000" stroke-width="10" stroke-miterlimit="10" d="M266.785,244.749"/>
<path fill="none" stroke="#000000" stroke-width="10" stroke-miterlimit="10" d="M218.146,195.262"/>
<path fill="none" stroke="#000000" stroke-width="10" stroke-miterlimit="10" d="M213.375,124.625"/>
<path fill="none" stroke="#000000" stroke-width="10" stroke-miterlimit="10" d="M117.375,124.625"/>
<path fill="none" stroke="#000000" stroke-width="10" stroke-miterlimit="10" d="M122.375,120.625"/>
<path fill="none" stroke="#000000" stroke-width="10" stroke-miterlimit="10" d="M122.375,216.625"/>
<path fill="none" stroke="#000000" stroke-width="10" stroke-miterlimit="10" d="M122.375,250.625"/>
<path fill="none" stroke="#000000" stroke-width="10" stroke-miterlimit="10" d="M122.375,346.625"/>
<path fill="none" stroke="#000000" stroke-width="10" stroke-miterlimit="10" d="M118.375,341.625"/>
<path fill="none" stroke="#000000" stroke-width="10" stroke-miterlimit="10" d="M214.375,341.625"/>
<path fill="none" stroke="#000000" stroke-width="10" stroke-miterlimit="10" d="M275.375,340.625"/>
<path fill="none" stroke="#000000" stroke-width="10" stroke-miterlimit="10" d="M371.375,340.625"/>
<path fill="none" stroke="#000000" stroke-width="10" stroke-miterlimit="10" d="M366.375,344.625"/>
<path fill="none" stroke="#000000" stroke-width="10" stroke-miterlimit="10" d="M366.375,248.625"/>
<path fill="none" stroke="#000000" stroke-width="10" stroke-miterlimit="10" d="M371.375,124.625"/>
<path fill="none" stroke="#000000" stroke-width="10" stroke-miterlimit="10" d="M275.375,124.625"/>
<path fill="none" stroke="#000000" stroke-width="10" stroke-miterlimit="10" d="M366.375,119.625"/>
<path fill="none" stroke="#000000" stroke-width="10" stroke-miterlimit="10" d="M366.375,215.625"/>
<path d="M253.669,376.924V247.058h42.852l6.77-43.036h-49.623v-21.58c0-11.23,3.682-21.948,19.8-21.948h32.216V117.54h-45.736
	c-38.455,0-48.948,25.323-48.948,60.423v26.039h-26.386v43.057h26.386v129.866L253.669,376.924L253.669,376.924z"/>
</svg>
