<?xml version="1.0" encoding="utf-8"?>
<!-- Generator: Adobe Illustrator 17.0.0, SVG Export Plug-In . SVG Version: 6.00 Build 0)  -->
<!DOCTYPE svg PUBLIC "-//W3C//DTD SVG 1.1//EN" "http://www.w3.org/Graphics/SVG/1.1/DTD/svg11.dtd">
<svg version="1.1" id="Layer_1" xmlns="http://www.w3.org/2000/svg" xmlns:xlink="http://www.w3.org/1999/xlink" x="0px" y="0px"
	 width="600px" height="600px" viewBox="0 0 600 600" enable-background="new 0 0 600 600" xml:space="preserve">
<path fill-rule="evenodd" clip-rule="evenodd" fill="#FFFFFF" stroke="#FFFFFF" stroke-miterlimit="10" d="M590.408,589.163H7.755
	V9.571h582.653V589.163z M497,304c0-110.46-89.54-200-200-200S97,193.54,97,304s89.54,200,200,200S497,414.46,497,304z
	 M193.281,229.926 M371.089,407.689 M222.911,407.719"/>
<g>
	<path fill="#020202" stroke="#FFFFFF" stroke-miterlimit="10" d="M289,146c-22.092,0-40-17.236-40-38.5S266.908,69,289,69
		s40,17.236,40,38.5S311.092,146,289,146z"/>
	<g>
		<path fill="#020202" stroke="#FFFFFF" stroke-miterlimit="10" d="M268.256,93.241"/>
		<path fill="#020202" stroke="#FFFFFF" stroke-miterlimit="10" d="M303.818,127.46"/>
		<path fill="#020202" stroke="#FFFFFF" stroke-miterlimit="10" d="M274.182,127.466"/>
	</g>
</g>
<g>
	<path fill="#2B2B2B" stroke="#FFFFFF" stroke-miterlimit="10" d="M152,202c-22.092,0-40-17.236-40-38.5s17.908-38.5,40-38.5
		s40,17.236,40,38.5S174.092,202,152,202z"/>
	<g>
		<path fill="#2B2B2B" stroke="#FFFFFF" stroke-miterlimit="10" d="M131.256,149.241"/>
		<path fill="#2B2B2B" stroke="#FFFFFF" stroke-miterlimit="10" d="M166.818,183.46"/>
		<path fill="#2B2B2B" stroke="#FFFFFF" stroke-miterlimit="10" d="M137.182,183.466"/>
	</g>
</g>
<g>
	<path fill="#E2E2E2" stroke="#FFFFFF" stroke-miterlimit="10" d="M430,197c-22.092,0-40-17.236-40-38.5s17.908-38.5,40-38.5
		s40,17.236,40,38.5S452.092,197,430,197z"/>
	<g>
		<path fill="#E2E2E2" stroke="#FFFFFF" stroke-miterlimit="10" d="M409.256,144.241"/>
		<path fill="#E2E2E2" stroke="#FFFFFF" stroke-miterlimit="10" d="M444.818,178.46"/>
		<path fill="#E2E2E2" stroke="#FFFFFF" stroke-miterlimit="10" d="M415.182,178.466"/>
	</g>
</g>
<g>
	<path fill="#454545" stroke="#FFFFFF" stroke-miterlimit="10" d="M102,322c-22.092,0-40-17.236-40-38.5S79.908,245,102,245
		s40,17.236,40,38.5S124.092,322,102,322z"/>
	<g>
		<path fill="#454545" stroke="#FFFFFF" stroke-miterlimit="10" d="M101.256,269.241"/>
		<path fill="#454545" stroke="#FFFFFF" stroke-miterlimit="10" d="M136.818,303.46"/>
		<path fill="#454545" stroke="#FFFFFF" stroke-miterlimit="10" d="M107.182,303.466"/>
	</g>
</g>
<g>
	<path fill="#BFBFBF" stroke="#FFFFFF" stroke-miterlimit="10" d="M493,331c-22.092,0-40-17.236-40-38.5s17.908-38.5,40-38.5
		s40,17.236,40,38.5S515.092,331,493,331z"/>
	<g>
		<path fill="#BFBFBF" stroke="#FFFFFF" stroke-miterlimit="10" d="M472.256,278.241"/>
		<path fill="#BFBFBF" stroke="#FFFFFF" stroke-miterlimit="10" d="M507.818,312.46"/>
		<path fill="#BFBFBF" stroke="#FFFFFF" stroke-miterlimit="10" d="M478.182,312.466"/>
	</g>
</g>
<g>
	<path fill="#A9A8A8" stroke="#FFFFFF" stroke-miterlimit="10" d="M443,475c-22.092,0-40-17.236-40-38.5s17.908-38.5,40-38.5
		s40,17.236,40,38.5S465.092,475,443,475z"/>
	<g>
		<path fill="#A9A8A8" stroke="#FFFFFF" stroke-miterlimit="10" d="M422.256,422.241"/>
		<path fill="#A9A8A8" stroke="#FFFFFF" stroke-miterlimit="10" d="M457.818,456.46"/>
		<path fill="#A9A8A8" stroke="#FFFFFF" stroke-miterlimit="10" d="M428.182,456.466"/>
	</g>
</g>
<g>
	<path fill="#838384" stroke="#FFFFFF" stroke-miterlimit="10" d="M289,545c-22.092,0-40-17.236-40-38.5
		c0-21.264,17.908-38.5,40-38.5s40,17.236,40,38.5C329,527.764,311.092,545,289,545z"/>
	<g>
		<path fill="#838384" stroke="#FFFFFF" stroke-miterlimit="10" d="M268.256,492.241"/>
		<path fill="#838384" stroke="#FFFFFF" stroke-miterlimit="10" d="M303.818,526.46"/>
		<path fill="#838384" stroke="#FFFFFF" stroke-miterlimit="10" d="M274.182,526.466"/>
	</g>
</g>
<g>
	<path fill="#686868" stroke="#FFFFFF" stroke-miterlimit="10" d="M143,467c-22.092,0-40-17.236-40-38.5s17.908-38.5,40-38.5
		s40,17.236,40,38.5S165.092,467,143,467z"/>
	<g>
		<path fill="#686868" stroke="#FFFFFF" stroke-miterlimit="10" d="M122.256,414.241"/>
		<path fill="#686868" stroke="#FFFFFF" stroke-miterlimit="10" d="M157.818,448.46"/>
		<path fill="#686868" stroke="#FFFFFF" stroke-miterlimit="10" d="M128.182,448.466"/>
	</g>
</g>
<g>
	<path fill-rule="evenodd" clip-rule="evenodd" fill="#FFFFFF" stroke="#FFFFFF" stroke-miterlimit="10" d="M293.803,393.118
		c-43.621,0-78.981-36.869-78.981-82.353s35.36-82.353,78.981-82.353s78.981,36.869,78.981,82.353S337.424,393.118,293.803,393.118z
		"/>
	<g>
		<path fill-rule="evenodd" clip-rule="evenodd" fill="#FFFFFF" stroke="#FFFFFF" stroke-miterlimit="10" d="M252.844,280.264"/>
		<path fill-rule="evenodd" clip-rule="evenodd" fill="#FFFFFF" stroke="#FFFFFF" stroke-miterlimit="10" d="M323.061,353.46"/>
		<path fill-rule="evenodd" clip-rule="evenodd" fill="#FFFFFF" stroke="#FFFFFF" stroke-miterlimit="10" d="M264.545,353.472"/>
	</g>
</g>
<g>
	<path fill="#020202" stroke="#FFFFFF" stroke-miterlimit="10" d="M290.643,245.706c-8.724,0-15.796-7.097-15.796-15.853
		c0-8.756,7.072-15.853,15.796-15.853s15.796,7.097,15.796,15.853C306.439,238.609,299.368,245.706,290.643,245.706z"/>
	<g>
		<path fill="#020202" stroke="#FFFFFF" stroke-miterlimit="10" d="M282.452,223.981"/>
		<path fill="#020202" stroke="#FFFFFF" stroke-miterlimit="10" d="M296.495,238.072"/>
		<path fill="#020202" stroke="#FFFFFF" stroke-miterlimit="10" d="M284.792,238.074"/>
	</g>
</g>
<g>
	<path fill="#2B2B2B" stroke="#FFFFFF" stroke-miterlimit="10" d="M236.541,268.765c-8.724,0-15.796-7.097-15.796-15.853
		c0-8.756,7.072-15.853,15.796-15.853s15.796,7.097,15.796,15.853C252.338,261.667,245.266,268.765,236.541,268.765z"/>
	<g>
		<path fill="#2B2B2B" stroke="#FFFFFF" stroke-miterlimit="10" d="M228.35,247.04"/>
		<path fill="#2B2B2B" stroke="#FFFFFF" stroke-miterlimit="10" d="M242.393,261.131"/>
		<path fill="#2B2B2B" stroke="#FFFFFF" stroke-miterlimit="10" d="M230.69,261.133"/>
	</g>
</g>
<g>
	<path fill="#E2E2E2" stroke="#FFFFFF" stroke-miterlimit="10" d="M346.325,266.706c-8.724,0-15.796-7.097-15.796-15.853
		S337.601,235,346.325,235s15.796,7.097,15.796,15.853S355.049,266.706,346.325,266.706z"/>
	<g>
		<path fill="#E2E2E2" stroke="#FFFFFF" stroke-miterlimit="10" d="M338.133,244.981"/>
		<path fill="#E2E2E2" stroke="#FFFFFF" stroke-miterlimit="10" d="M352.176,259.072"/>
		<path fill="#E2E2E2" stroke="#FFFFFF" stroke-miterlimit="10" d="M340.473,259.074"/>
	</g>
</g>
<g>
	<path fill="#454545" stroke="#FFFFFF" stroke-miterlimit="10" d="M216.796,318.176c-8.724,0-15.796-7.097-15.796-15.853
		c0-8.756,7.072-15.853,15.796-15.853s15.796,7.097,15.796,15.853C232.592,311.079,225.52,318.176,216.796,318.176z"/>
	<g>
		<path fill="#454545" stroke="#FFFFFF" stroke-miterlimit="10" d="M216.502,296.452"/>
		<path fill="#454545" stroke="#FFFFFF" stroke-miterlimit="10" d="M230.546,310.542"/>
		<path fill="#454545" stroke="#FFFFFF" stroke-miterlimit="10" d="M218.843,310.545"/>
	</g>
</g>
<g>
	<path fill="#BFBFBF" stroke="#FFFFFF" stroke-miterlimit="10" d="M371.204,321.882c-8.724,0-15.796-7.097-15.796-15.853
		c0-8.756,7.072-15.853,15.796-15.853S387,297.274,387,306.029C387,314.785,379.928,321.882,371.204,321.882z"/>
	<g>
		<path fill="#BFBFBF" stroke="#FFFFFF" stroke-miterlimit="10" d="M363.012,300.158"/>
		<path fill="#BFBFBF" stroke="#FFFFFF" stroke-miterlimit="10" d="M377.055,314.248"/>
		<path fill="#BFBFBF" stroke="#FFFFFF" stroke-miterlimit="10" d="M365.352,314.251"/>
	</g>
</g>
<g>
	<path fill="#A9A8A8" stroke="#FFFFFF" stroke-miterlimit="10" d="M351.459,381.176c-8.724,0-15.796-7.097-15.796-15.853
		c0-8.756,7.072-15.853,15.796-15.853s15.796,7.097,15.796,15.853C367.255,374.079,360.183,381.176,351.459,381.176z"/>
	<g>
		<path fill="#A9A8A8" stroke="#FFFFFF" stroke-miterlimit="10" d="M343.267,359.452"/>
		<path fill="#A9A8A8" stroke="#FFFFFF" stroke-miterlimit="10" d="M357.31,373.542"/>
		<path fill="#A9A8A8" stroke="#FFFFFF" stroke-miterlimit="10" d="M345.607,373.545"/>
	</g>
</g>
<g>
	<path fill="#838384" stroke="#FFFFFF" stroke-miterlimit="10" d="M290.643,410c-8.724,0-15.796-7.097-15.796-15.853
		s7.072-15.853,15.796-15.853s15.796,7.097,15.796,15.853S299.368,410,290.643,410z"/>
	<g>
		<path fill="#838384" stroke="#FFFFFF" stroke-miterlimit="10" d="M282.452,388.276"/>
		<path fill="#838384" stroke="#FFFFFF" stroke-miterlimit="10" d="M296.495,402.366"/>
		<path fill="#838384" stroke="#FFFFFF" stroke-miterlimit="10" d="M284.792,402.368"/>
	</g>
</g>
<g>
	<path fill="#686868" stroke="#FFFFFF" stroke-miterlimit="10" d="M232.987,377.882c-8.724,0-15.796-7.097-15.796-15.853
		c0-8.756,7.072-15.853,15.796-15.853s15.796,7.097,15.796,15.853C248.783,370.785,241.712,377.882,232.987,377.882z"/>
	<g>
		<path fill="#686868" stroke="#FFFFFF" stroke-miterlimit="10" d="M224.795,356.158"/>
		<path fill="#686868" stroke="#FFFFFF" stroke-miterlimit="10" d="M238.839,370.248"/>
		<path fill="#686868" stroke="#FFFFFF" stroke-miterlimit="10" d="M227.136,370.251"/>
	</g>
</g>
</svg>
