<?xml version="1.0" encoding="utf-8"?>
<!-- Generator: Adobe Illustrator 17.0.0, SVG Export Plug-In . SVG Version: 6.00 Build 0)  -->
<!DOCTYPE svg PUBLIC "-//W3C//DTD SVG 1.1//EN" "http://www.w3.org/Graphics/SVG/1.1/DTD/svg11.dtd">
<svg version="1.1" id="Layer_1" xmlns="http://www.w3.org/2000/svg" xmlns:xlink="http://www.w3.org/1999/xlink" x="0px" y="0px"
	 width="600px" height="600px" viewBox="0 0 600 600" enable-background="new 0 0 600 600" xml:space="preserve">
<path fill-rule="evenodd" clip-rule="evenodd" fill="#FFFFFF" stroke="#FFFFFF" stroke-miterlimit="10" d="M589.388,592.224H8.776
	V9.571h580.612V592.224z M478.286,283.159c0,25.561-20.724,46.331-46.375,46.331c-25.561,0-46.196-20.769-46.196-46.331
	s20.635-46.241,46.196-46.241C457.561,236.918,478.286,257.598,478.286,283.159z M339.429,283.159
	c0,25.561-20.724,46.331-46.375,46.331c-25.561,0-46.196-20.769-46.196-46.331s20.635-46.241,46.196-46.241
	C318.704,236.918,339.429,257.598,339.429,283.159z M200.571,283.159c0,25.561-20.748,46.331-46.286,46.331
	c-25.584,0-46.286-20.769-46.286-46.331s20.701-46.241,46.286-46.241C179.824,236.918,200.571,257.598,200.571,283.159z"/>
</svg>
