<?xml version="1.0" encoding="utf-8"?>
<!-- Generator: Adobe Illustrator 17.0.0, SVG Export Plug-In . SVG Version: 6.00 Build 0)  -->
<!DOCTYPE svg PUBLIC "-//W3C//DTD SVG 1.1//EN" "http://www.w3.org/Graphics/SVG/1.1/DTD/svg11.dtd">
<svg version="1.1" id="Layer_1" xmlns="http://www.w3.org/2000/svg" xmlns:xlink="http://www.w3.org/1999/xlink" x="0px" y="0px"
	 width="600px" height="600px" viewBox="0 0 600 600" enable-background="new 0 0 600 600" xml:space="preserve">
<g>
	<path fill="none" stroke="#FFFEFE" stroke-width="5" stroke-miterlimit="10" d="M300.556,596
		C137.381,596,5.111,463.73,5.111,300.556S137.381,5.111,300.556,5.111S596,137.381,596,300.556S463.73,596,300.556,596z"/>
	<g>
		<path fill="#020202" stroke="#100A0D" stroke-width="5" stroke-miterlimit="10" d="M147.34,191.132"/>
		<path fill="#020202" stroke="#100A0D" stroke-width="5" stroke-miterlimit="10" d="M410.001,453.727"/>
		<path fill="#020202" stroke="#100A0D" stroke-width="5" stroke-miterlimit="10" d="M191.11,453.771"/>
	</g>
</g>
<path fill="#FFFFFF" stroke="#F9F9FA" stroke-miterlimit="10" d="M411.624,260.389c-20.05,0-36.235,16.221-36.235,36.27
	S391.574,333,411.624,333c20.12,0,36.376-16.291,36.376-36.341S431.744,260.389,411.624,260.389z"/>
<path fill="#FFFFFF" stroke="#F9F9FA" stroke-miterlimit="10" d="M302.707,260.389c-20.05,0-36.235,16.221-36.235,36.27
	S282.658,333,302.707,333c20.12,0,36.376-16.291,36.376-36.341S322.828,260.389,302.707,260.389z"/>
<path fill="#FFFFFF" stroke="#F9F9FA" stroke-miterlimit="10" d="M193.861,260.389c-20.068,0-36.306,16.221-36.306,36.27
	S173.793,333,193.861,333c20.032,0,36.306-16.291,36.306-36.341S213.893,260.389,193.861,260.389z"/>
</svg>
