<?xml version="1.0" encoding="utf-8"?>
<!-- Generator: Adobe Illustrator 17.0.0, SVG Export Plug-In . SVG Version: 6.00 Build 0)  -->
<!DOCTYPE svg PUBLIC "-//W3C//DTD SVG 1.1//EN" "http://www.w3.org/Graphics/SVG/1.1/DTD/svg11.dtd">
<svg version="1.1" id="Layer_1" xmlns="http://www.w3.org/2000/svg" xmlns:xlink="http://www.w3.org/1999/xlink" x="0px" y="0px"
	 width="600px" height="600px" viewBox="0 0 600 600" enable-background="new 0 0 600 600" xml:space="preserve">
<path fill-rule="evenodd" clip-rule="evenodd" fill="#FFFFFF" stroke="#F9F9FA" stroke-miterlimit="10" d="M590.408,592.224H8.776
	V9.571h581.633V592.224z M486.16,353.916c-17.21,17.413-40.156,26.984-64.617,26.984c-24.353,0-47.3-9.571-64.617-26.984
	L240.463,236.294c-13.854-13.953-32.255-21.679-51.845-21.679s-37.991,7.726-51.845,21.679c-28.575,28.829-28.575,75.878,0,104.822
	c13.854,13.953,32.255,21.679,51.845,21.679s37.991-7.726,51.845-21.679l39.182-39.553l12.664,12.8l-39.074,39.553
	c-17.21,17.413-40.156,26.984-64.617,26.984s-47.408-9.571-64.617-26.984c-35.61-35.979-35.61-94.444,0-130.422
	c17.21-17.413,40.156-26.984,64.617-26.984c24.353,0,47.3,9.571,64.617,26.984l116.463,117.622
	c13.854,13.953,32.255,21.679,51.845,21.679s37.991-7.726,51.845-21.679c28.575-28.829,28.575-75.878,0-104.822
	c-13.854-13.953-32.255-21.679-51.845-21.679s-37.991,7.726-51.845,21.679l-39.182,39.669l-12.664-12.915l39.182-39.553
	c17.21-17.413,40.156-26.984,64.617-26.984c24.462,0,47.408,9.571,64.617,26.984C521.879,259.473,521.879,318.053,486.16,353.916z"
	/>
</svg>
