<?xml version="1.0" encoding="utf-8"?>
<!-- Generator: Adobe Illustrator 17.0.0, SVG Export Plug-In . SVG Version: 6.00 Build 0)  -->
<!DOCTYPE svg PUBLIC "-//W3C//DTD SVG 1.1//EN" "http://www.w3.org/Graphics/SVG/1.1/DTD/svg11.dtd">
<svg version="1.1" id="Layer_1" xmlns="http://www.w3.org/2000/svg" xmlns:xlink="http://www.w3.org/1999/xlink" x="0px" y="0px"
	 width="600px" height="600px" viewBox="0 0 600 600" enable-background="new 0 0 600 600" xml:space="preserve">
<g>
	<path fill="none" stroke="#FFFFFF" stroke-width="5" stroke-miterlimit="10" d="M300.49,594.551
		C138.08,594.551,6.429,462.9,6.429,300.49S138.08,6.429,300.49,6.429S594.551,138.08,594.551,300.49S462.9,594.551,300.49,594.551z
		"/>
	<g>
		<path fill="#020202" stroke="#100A0D" stroke-width="5" stroke-miterlimit="10" d="M147.992,191.578"/>
		<path fill="#020202" stroke="#100A0D" stroke-width="5" stroke-miterlimit="10" d="M409.423,452.944"/>
		<path fill="#020202" stroke="#100A0D" stroke-width="5" stroke-miterlimit="10" d="M191.556,452.988"/>
	</g>
</g>
<g id="Page-1">
	<g id="Core" transform="translate(-339.000000, -381.000000)">
		<g id="search" transform="translate(339.000000, 381.000000)">
			<path id="Shape" fill="#FFFFFF" d="M359.459,338.569h-12.882l-4.831-4.866c16.102-17.841,25.763-42.168,25.763-68.118
				c0-58.387-46.696-105.421-104.663-105.421s-104.663,47.034-104.663,105.421s46.696,105.421,104.663,105.421
				c25.763,0,49.916-9.731,67.629-25.95l4.831,4.866v12.975l80.51,81.093l24.153-24.328L359.459,338.569L359.459,338.569z
				 M262.847,338.569c-40.255,0-72.459-32.437-72.459-72.984s32.204-72.984,72.459-72.984s72.459,32.437,72.459,72.984
				S303.102,338.569,262.847,338.569L262.847,338.569z"/>
		</g>
	</g>
</g>
</svg>
