<?xml version="1.0" encoding="utf-8"?>
<!-- Generator: Adobe Illustrator 17.0.0, SVG Export Plug-In . SVG Version: 6.00 Build 0)  -->
<!DOCTYPE svg PUBLIC "-//W3C//DTD SVG 1.1//EN" "http://www.w3.org/Graphics/SVG/1.1/DTD/svg11.dtd">
<svg version="1.1" id="Layer_1" xmlns="http://www.w3.org/2000/svg" xmlns:xlink="http://www.w3.org/1999/xlink" x="0px" y="0px"
	 width="600px" height="600px" viewBox="0 0 600 600" enable-background="new 0 0 600 600" xml:space="preserve">
<g>
	<path fill="none" stroke="#FFFFFF" stroke-width="5" stroke-miterlimit="10" d="M300.49,594.551
		C138.08,594.551,6.429,462.9,6.429,300.49S138.08,6.429,300.49,6.429S594.551,138.08,594.551,300.49S462.9,594.551,300.49,594.551z
		"/>
	<g>
		<path fill="#020202" stroke="#100A0D" stroke-width="5" stroke-miterlimit="10" d="M147.992,191.578"/>
		<path fill="#020202" stroke="#100A0D" stroke-width="5" stroke-miterlimit="10" d="M409.423,452.944"/>
		<path fill="#020202" stroke="#100A0D" stroke-width="5" stroke-miterlimit="10" d="M191.556,452.988"/>
	</g>
</g>
<g id="search_1_">
	<path fill="#FFFDFD" d="M316.499,163.498c-59.643,0-107.999,48.357-107.999,107.999c0,18.234,4.563,35.397,12.555,50.472
		l-75.095,75.077l0.063,0.054c-5.868,5.769-9.522,13.761-9.522,22.644c0,17.541,14.22,31.761,31.761,31.761
		c8.865,0,16.866-3.654,22.635-9.531l-0.018-0.018l75.068-75.059c15.084,8.019,32.274,12.6,50.553,12.6
		c59.643,0,107.999-48.357,107.999-107.999S376.141,163.498,316.499,163.498z M179.655,430.724
		c-2.898,3.006-6.912,4.887-11.394,4.887c-8.775,0-15.885-7.101-15.885-15.876c0-4.482,1.89-8.487,4.887-11.394l-0.081-0.072
		l72.593-72.593c6.345,8.559,13.905,16.119,22.446,22.482L179.655,430.724z M316.499,361.506c-49.698,0-89.999-40.311-89.999-89.999
		c0-49.698,40.302-89.999,89.999-89.999c49.689,0,89.999,40.302,89.999,89.999C406.498,321.195,366.187,361.506,316.499,361.506z"/>
	<path fill="#FFFDFD" d="M316.499,208.498c-34.803,0-63,28.206-63,63c0,2.484,2.016,4.5,4.5,4.5c2.484,0,4.5-2.016,4.5-4.5
		c0-29.817,24.174-54,54-54c2.475,0,4.5-2.016,4.5-4.5S318.974,208.498,316.499,208.498z"/>
</g>
</svg>
