<?xml version="1.0" encoding="utf-8"?>
<!-- Generator: Adobe Illustrator 17.0.0, SVG Export Plug-In . SVG Version: 6.00 Build 0)  -->
<!DOCTYPE svg PUBLIC "-//W3C//DTD SVG 1.1//EN" "http://www.w3.org/Graphics/SVG/1.1/DTD/svg11.dtd">
<svg version="1.1" id="Layer_1" xmlns="http://www.w3.org/2000/svg" xmlns:xlink="http://www.w3.org/1999/xlink" x="0px" y="0px"
	 width="600px" height="600px" viewBox="0 0 600 600" enable-background="new 0 0 600 600" xml:space="preserve">
<g>
	<path fill="none" stroke="#FFFFFF" stroke-width="5" stroke-miterlimit="10" d="M302,599C137.967,599,5,466.033,5,302
		S137.967,5,302,5s297,132.967,297,297S466.033,599,302,599z"/>
	<g>
		<path fill="#010101" stroke="#0D0508" stroke-width="5" stroke-miterlimit="10" d="M188.984,221"/>
		<path fill="#010101" stroke="#0D0508" stroke-width="5" stroke-miterlimit="10" d="M381.016,412.984"/>
		<path fill="#010101" stroke="#0D0508" stroke-width="5" stroke-miterlimit="10" d="M220.984,413.016"/>
	</g>
</g>
<path fill="#FFFFFF" d="M305.38,166.101c-79.112,0-119.02,56.464-119.02,103.539c0,28.512,10.832,53.874,34.097,63.314
	c3.839,1.479,7.239,0.07,8.348-4.138c0.776-2.905,2.589-10.251,3.4-13.314c1.108-4.157,0.687-5.636-2.395-9.229
	c-6.709-7.871-10.99-18.052-10.99-32.494c0-41.898,31.49-79.377,81.981-79.377c44.663,0,69.284,27.175,69.284,63.525
	c0,47.763-21.239,88.057-52.763,88.057c-17.453,0-30.504-14.319-26.312-31.894c5.001-20.958,14.687-43.625,14.687-58.806
	c0-13.56-7.327-24.903-22.436-24.903c-17.822,0-32.105,18.369-32.105,42.919c0,15.64,5.302,26.224,5.302,26.224
	s-18.211,76.875-21.415,90.312c-6.375,26.822-0.951,59.668-0.494,62.98c0.264,1.971,2.818,2.448,3.945,0.951
	c1.656-2.131,22.86-28.197,30.062-54.243c2.061-7.345,11.712-45.562,11.712-45.562c5.794,10.99,22.702,20.676,40.683,20.676
	c53.521,0,89.854-48.555,89.854-113.595C410.804,211.892,368.959,166.101,305.38,166.101z"/>
</svg>
