<?xml version="1.0" encoding="utf-8"?>
<!-- Generator: Adobe Illustrator 17.0.0, SVG Export Plug-In . SVG Version: 6.00 Build 0)  -->
<!DOCTYPE svg PUBLIC "-//W3C//DTD SVG 1.1//EN" "http://www.w3.org/Graphics/SVG/1.1/DTD/svg11.dtd">
<svg version="1.1" id="Layer_1" xmlns="http://www.w3.org/2000/svg" xmlns:xlink="http://www.w3.org/1999/xlink" x="0px" y="0px"
	 width="600px" height="600px" viewBox="0 0 600 600" enable-background="new 0 0 600 600" xml:space="preserve">
<path fill-rule="evenodd" clip-rule="evenodd" fill="#F9F9FA" d="M591.889,592.111H8.556V9.889h583.333V592.111z M447.963,234.912
	c0,89.621-49.884,156.527-123.364,156.527c-24.687,0-47.899-13.346-55.855-28.49c0,0-13.25,52.66-16.079,62.781
	c-9.889,35.89-39,71.808-41.274,74.744c-1.547,2.063-5.054,1.407-5.416-1.31c-0.628-4.563-8.076-49.823,0.677-86.782
	c4.4-18.515,29.402-124.444,29.402-124.444s-7.279-14.585-7.279-36.135c0-33.829,19.609-59.14,44.078-59.14
	c20.745,0,30.804,15.63,30.804,34.315c0,20.918-13.297,52.151-20.165,81.03c-5.755,24.218,12.163,43.948,36.124,43.948
	c43.28,0,72.44-55.524,72.44-121.338c0-50.088-33.804-87.533-95.123-87.533c-69.322,0-112.555,51.643-112.555,109.375
	c0,19.898,5.877,33.928,15.089,44.774c4.231,4.952,4.81,6.989,3.288,12.717c-1.114,4.221-3.603,14.342-4.668,18.345
	c-1.522,5.8-6.19,7.74-11.46,5.703c-31.942-13.008-46.812-47.953-46.812-87.242c0-64.866,54.79-142.669,163.405-142.669
	C390.51,104.089,447.96,167.184,447.963,234.912z"/>
</svg>
