<?xml version="1.0" encoding="utf-8"?>
<!-- Generator: Adobe Illustrator 17.0.0, SVG Export Plug-In . SVG Version: 6.00 Build 0)  -->
<!DOCTYPE svg PUBLIC "-//W3C//DTD SVG 1.1//EN" "http://www.w3.org/Graphics/SVG/1.1/DTD/svg11.dtd">
<svg version="1.1" id="Layer_1" xmlns="http://www.w3.org/2000/svg" xmlns:xlink="http://www.w3.org/1999/xlink" x="0px" y="0px"
	 width="600px" height="600px" viewBox="0 0 600 600" enable-background="new 0 0 600 600" xml:space="preserve">
<path fill-rule="evenodd" clip-rule="evenodd" fill="#FFFFFF" stroke="#FFFFFF" stroke-miterlimit="10" d="M594.49,592.245H6.735
	V7.551H594.49V592.245z M423.7,171.45L481,114v167.563H313.875l76.4-76.6c-26.262-26.331-59.688-43.087-100.275-43.087
	c-78.788,0-143.25,64.631-143.25,143.625S211.212,449.125,290,449.125c62.075,0,114.6-40.694,133.7-95.75h50.137
	C452.35,434.762,378.337,497,290,497c-105.05,0-191-86.175-191-191.5S184.95,114,290,114C342.525,114,390.275,135.544,423.7,171.45
	L423.7,171.45z"/>
</svg>
