<?xml version="1.0" encoding="utf-8"?>
<!-- Generator: Adobe Illustrator 17.0.0, SVG Export Plug-In . SVG Version: 6.00 Build 0)  -->
<!DOCTYPE svg PUBLIC "-//W3C//DTD SVG 1.1//EN" "http://www.w3.org/Graphics/SVG/1.1/DTD/svg11.dtd">
<svg version="1.1" id="Layer_1" xmlns="http://www.w3.org/2000/svg" xmlns:xlink="http://www.w3.org/1999/xlink" x="0px" y="0px"
	 width="600px" height="600px" viewBox="0 0 600 600" enable-background="new 0 0 600 600" xml:space="preserve">
<g>
	<path fill="none" stroke="#FFFFFF" stroke-width="5" stroke-miterlimit="10" d="M299.469,595.571
		C137.059,595.571,5.408,463.692,5.408,301S137.059,6.429,299.469,6.429S593.531,138.308,593.531,301
		S461.88,595.571,299.469,595.571z"/>
	<g>
		<path fill="#020202" stroke="#100A0D" stroke-width="5" stroke-miterlimit="10" d="M146.971,191.899"/>
		<path fill="#020202" stroke="#100A0D" stroke-width="5" stroke-miterlimit="10" d="M408.403,453.719"/>
		<path fill="#020202" stroke="#100A0D" stroke-width="5" stroke-miterlimit="10" d="M190.536,453.763"/>
	</g>
</g>
<g id="Page-1">
	<g id="Core" transform="translate(-424.000000, -340.000000)">
		<g id="refresh" transform="translate(424.000000, 340.000000)">
			<path id="Shape" fill="#FFFFFF" d="M391.358,206.03c-25.416-27.232-61.725-43.57-101.664-43.57
				c-79.879,0-145.235,65.356-145.235,145.235s65.356,145.235,145.235,145.235c67.171,0,123.449-47.201,139.788-108.926h-38.124
				c-14.523,41.755-54.463,72.617-101.664,72.617c-59.909,0-108.926-49.017-108.926-108.926s49.017-108.926,108.926-108.926
				c30.862,0,56.278,12.708,76.248,32.678l-58.094,58.094h127.08v-127.08L391.358,206.03L391.358,206.03z"/>
		</g>
	</g>
</g>
</svg>
