<?xml version="1.0" encoding="utf-8"?>
<!-- Generator: Adobe Illustrator 17.0.0, SVG Export Plug-In . SVG Version: 6.00 Build 0)  -->
<!DOCTYPE svg PUBLIC "-//W3C//DTD SVG 1.1//EN" "http://www.w3.org/Graphics/SVG/1.1/DTD/svg11.dtd">
<svg version="1.1" id="Layer_1" xmlns="http://www.w3.org/2000/svg" xmlns:xlink="http://www.w3.org/1999/xlink" x="0px" y="0px"
	 width="600px" height="600px" viewBox="0 0 600 600" enable-background="new 0 0 600 600" xml:space="preserve">
<g>
	<path fill="none" stroke="#FFFFFF" stroke-width="5" stroke-miterlimit="10" d="M300.49,594.551
		C138.08,594.551,6.429,462.9,6.429,300.49S138.08,6.429,300.49,6.429S594.551,138.08,594.551,300.49S462.9,594.551,300.49,594.551z
		"/>
	<g>
		<path fill="#020202" stroke="#100A0D" stroke-width="5" stroke-miterlimit="10" d="M147.992,191.578"/>
		<path fill="#020202" stroke="#100A0D" stroke-width="5" stroke-miterlimit="10" d="M409.423,452.944"/>
		<path fill="#020202" stroke="#100A0D" stroke-width="5" stroke-miterlimit="10" d="M191.556,452.988"/>
	</g>
</g>
<g>
	
		<path fill="#FCFCFC" stroke="#FFFFFF" stroke-width="5" stroke-linecap="round" stroke-linejoin="round" stroke-miterlimit="10" d="
		M311.018,148.071v72.009h67.612v44.737h-67.612v73.09c0,16.507,0.865,27.1,2.609,31.792c1.754,4.682,4.992,8.426,9.767,11.241
		c6.323,3.788,13.511,5.684,21.637,5.684c14.424,0,28.765-4.716,43.027-14.09v44.939c-12.179,5.753-23.204,9.767-33.074,12.086
		c-9.855,2.314-20.526,3.464-32.003,3.464c-13.019,0-24.525-1.641-34.543-4.942c-10.027-3.292-18.546-7.988-25.621-14.056
		c-7.07-6.092-11.968-12.577-14.699-19.45c-2.737-6.829-4.088-16.768-4.088-29.792v-99.958h-31.512v-40.33
		c11.197-3.621,20.811-8.833,28.76-15.618c8.003-6.804,14.405-14.965,19.219-24.476c4.834-9.516,8.16-21.617,9.978-36.326h40.543
		V148.071z"/>
</g>
</svg>
