<?xml version="1.0" encoding="utf-8"?>
<!-- Generator: Adobe Illustrator 17.0.0, SVG Export Plug-In . SVG Version: 6.00 Build 0)  -->
<!DOCTYPE svg PUBLIC "-//W3C//DTD SVG 1.1//EN" "http://www.w3.org/Graphics/SVG/1.1/DTD/svg11.dtd">
<svg version="1.1" id="Layer_1" xmlns="http://www.w3.org/2000/svg" xmlns:xlink="http://www.w3.org/1999/xlink" x="0px" y="0px"
	 width="600px" height="600px" viewBox="0 0 600 600" enable-background="new 0 0 600 600" xml:space="preserve">
<g>
	<g>
		<path fill="#010101" d="M148.559,191.692"/>
		<path fill="#010101" d="M407.269,450.337"/>
		<path fill="#010101" d="M191.67,450.38"/>
	</g>
</g>
<g>
	
		<path fill="#030202" stroke="#070404" stroke-width="1.5" stroke-linecap="round" stroke-linejoin="round" stroke-miterlimit="10" d="
		M305.635,159v72.161h67.754v44.832h-67.754v73.244c0,16.542,0.866,27.157,2.614,31.859c1.758,4.692,5.002,8.443,9.788,11.264
		c6.336,3.796,13.539,5.696,21.682,5.696c14.455,0,28.826-4.726,43.118-14.12v45.033c-12.205,5.765-23.253,9.788-33.144,12.111
		c-9.876,2.319-20.569,3.471-32.07,3.471c-13.047,0-24.577-1.644-34.616-4.953c-10.048-3.299-18.585-8.005-25.675-14.086
		c-7.085-6.105-11.993-12.604-14.73-19.491c-2.742-6.843-4.096-16.803-4.096-29.855V275.997h-31.578v-40.415
		c11.22-3.628,20.855-8.852,28.821-15.651c8.02-6.819,14.435-14.996,19.26-24.528c4.845-9.536,8.178-21.662,9.999-36.403H305.635z"
		/>
</g>
<g>
	<path fill="none" stroke="#010101" stroke-width="10" stroke-miterlimit="10" d="M298.49,591.49c-160.72,0-291-130.28-291-291
		s130.28-291,291-291s291,130.28,291,291S459.209,591.49,298.49,591.49z"/>
	<g>
		<path fill="#010101" d="M147.579,192.712"/>
		<path fill="#010101" d="M406.289,451.357"/>
		<path fill="#010101" d="M190.69,451.4"/>
	</g>
</g>
</svg>
