<?xml version="1.0" encoding="utf-8"?>
<!-- Generator: Adobe Illustrator 17.0.0, SVG Export Plug-In . SVG Version: 6.00 Build 0)  -->
<!DOCTYPE svg PUBLIC "-//W3C//DTD SVG 1.1//EN" "http://www.w3.org/Graphics/SVG/1.1/DTD/svg11.dtd">
<svg version="1.1" id="Layer_1" xmlns="http://www.w3.org/2000/svg" xmlns:xlink="http://www.w3.org/1999/xlink" x="0px" y="0px"
	 width="600px" height="600px" viewBox="0 0 600 600" enable-background="new 0 0 600 600" xml:space="preserve">
<path fill-rule="evenodd" clip-rule="evenodd" fill="#FFFFFF" d="M591.889,592.111H7.556V8.444h584.333V592.111z M310.283,112.196
	h-51.277c-2.308,20.12-6.514,36.719-12.654,49.733c-6.096,13.046-14.201,24.196-24.327,33.523
	c-10.083,9.295-26.503,16.432-40.667,21.405v55.284h48.991v136.882c0,17.844,1.729,31.469,5.195,40.874
	c3.459,9.382,9.636,18.256,18.612,26.607c8.932,8.288,19.74,14.735,32.417,19.271c12.654,4.481,22.385,6.741,38.872,6.741
	c14.523,0,28.02-1.618,40.528-4.758c12.493-3.141,26.459-8.676,41.847-16.527V419.69c-18.062,12.84-36.227,19.256-54.487,19.256
	c-10.273,0-19.359-2.585-27.361-7.772c-6.009-3.823-11.533-10.453-13.739-16.837c-2.206-6.416-1.949-19.478-1.949-42.12V272.141
	h83.379v-69.694h-83.379v-90.258V112.196z"/>
</svg>
