<?xml version="1.0" encoding="utf-8"?>
<!-- Generator: Adobe Illustrator 17.0.0, SVG Export Plug-In . SVG Version: 6.00 Build 0)  -->
<!DOCTYPE svg PUBLIC "-//W3C//DTD SVG 1.1//EN" "http://www.w3.org/Graphics/SVG/1.1/DTD/svg11.dtd">
<svg version="1.1" id="Layer_1" xmlns="http://www.w3.org/2000/svg" xmlns:xlink="http://www.w3.org/1999/xlink" x="0px" y="0px"
	 width="600px" height="600px" viewBox="0 0 600 600" enable-background="new 0 0 600 600" xml:space="preserve">
<path fill-rule="evenodd" clip-rule="evenodd" fill="#FFFFFF" stroke="#FCFAFC" stroke-miterlimit="10" d="M594.49,596.306H5.714
	V7.531H594.49V596.306z M448.38,222.366c0,0.428,0.044,0.833,0.044,1.239c0,0.316-0.044,0.675-0.044,1.037
	c0,0.136,0.044,0.292,0.044,0.451c5.138,132.298-90.295,239.538-213.177,239.538c-43.242,0-84.095-13.295-119.139-36.281
	c51.585,8.811,93.268-18.838,105.484-34.031c-34.275,0-65.642-31.545-68.075-55.703c6.912,1.15,22.732,2.637,31.705-2.569
	c-46.513-13.723-59.289-51.583-58.748-80.133c7.774,8.136,24.312,9.985,33.259,9.24c-26.207-17.444-46.172-65.316-23.097-108.368
	c37.589,52.718,104.288,83.512,161.344,85.089h0.024c-1.262-5.879-1.956-11.987-1.956-18.275c0-45.305,34.117-82.025,76.163-82.025
	c21.677,0,41.194,9.734,55.08,25.362c-0.024-0.022-0.024-0.056-0.024-0.056c12.164,0,36.798-10.749,47.521-18.117
	c-4.079,16.855-20.595,38.074-31.752,44.55c17.4-1.849,36.055-9.216,42.275-12.912C474.56,199.601,459.554,214.159,448.38,222.366z"
	/>
</svg>
