<?xml version="1.0" encoding="utf-8"?>
<!-- Generator: Adobe Illustrator 17.0.0, SVG Export Plug-In . SVG Version: 6.00 Build 0)  -->
<!DOCTYPE svg PUBLIC "-//W3C//DTD SVG 1.1//EN" "http://www.w3.org/Graphics/SVG/1.1/DTD/svg11.dtd">
<svg version="1.1" id="Layer_1" xmlns="http://www.w3.org/2000/svg" xmlns:xlink="http://www.w3.org/1999/xlink" x="0px" y="0px"
	 width="600px" height="600px" viewBox="0 0 600 600" enable-background="new 0 0 600 600" xml:space="preserve">
<g>
	<path fill="none" stroke="#FCFCFC" stroke-width="5" stroke-miterlimit="10" d="M302,599.5C137.414,599.5,4,466.198,4,301.75
		S137.414,4,302,4s298,133.302,298,297.75S466.586,599.5,302,599.5z"/>
	<g>
		<path fill="#010101" stroke="#0D0508" stroke-width="5" stroke-miterlimit="10" d="M189.763,233.527"/>
		<path fill="#010101" stroke="#0D0508" stroke-width="5" stroke-miterlimit="10" d="M382.604,436.593"/>
		<path fill="#010101" stroke="#0D0508" stroke-width="5" stroke-miterlimit="10" d="M221.898,436.627"/>
	</g>
</g>
<path fill="#FCFCFC" d="M435.024,208.187c-4.704,2.815-18.812,8.427-31.971,9.836c8.438-4.933,20.928-21.097,24.013-33.936
	c-8.11,5.613-26.738,13.801-35.938,13.801c0,0,0,0.025,0.018,0.042c-10.502-11.905-25.261-19.319-41.654-19.319
	c-31.797,0-57.598,27.971-57.598,62.482c0,4.79,0.525,9.442,1.48,13.921h-0.018c-43.149-1.203-93.59-24.659-122.016-64.816
	c-17.45,32.794-2.353,69.26,17.467,82.549c-6.766,0.568-19.272-0.841-25.152-7.038c-0.41,21.748,9.253,50.588,44.428,61.041
	c-6.786,3.965-18.749,2.833-23.976,1.957c1.841,18.402,25.561,42.431,51.482,42.431c-9.239,11.573-40.761,32.634-79.772,25.922
	c26.501,17.509,57.396,27.636,90.098,27.636c92.929,0,165.101-81.689,161.215-182.466c0-0.122-0.034-0.24-0.034-0.343
	c0-0.276,0.034-0.55,0.034-0.79c0-0.309-0.034-0.618-0.034-0.944C415.546,233.9,426.895,222.812,435.024,208.187z"/>
</svg>
