<?xml version="1.0" encoding="utf-8"?>
<!-- Generator: Adobe Illustrator 17.0.0, SVG Export Plug-In . SVG Version: 6.00 Build 0)  -->
<!DOCTYPE svg PUBLIC "-//W3C//DTD SVG 1.1//EN" "http://www.w3.org/Graphics/SVG/1.1/DTD/svg11.dtd">
<svg version="1.1" id="Layer_1" xmlns="http://www.w3.org/2000/svg" xmlns:xlink="http://www.w3.org/1999/xlink" x="0px" y="0px"
	 width="600px" height="600px" viewBox="0 0 600 600" enable-background="new 0 0 600 600" xml:space="preserve">
<g>
	<path fill="none" stroke="#FDFDFE" stroke-width="5" stroke-miterlimit="10" d="M301,594.551
		C138.872,594.551,7.449,463.129,7.449,301S138.872,7.449,301,7.449S594.551,138.872,594.551,301S463.129,594.551,301,594.551z"/>
	<g>
		<path fill="#020202" stroke="#FDFDFE" stroke-width="5" stroke-miterlimit="10" d="M148.767,192.277"/>
		<path fill="#020202" stroke="#FDFDFE" stroke-width="5" stroke-miterlimit="10" d="M409.744,453.19"/>
		<path fill="#020202" stroke="#FDFDFE" stroke-width="5" stroke-miterlimit="10" d="M192.256,453.233"/>
	</g>
</g>
<path fill="#FFFFFF" d="M366.697,250.194H225.092v106.204h141.605V250.194z M419.799,391.799h-53.102V409.5H437.5v-70.803h-17.701
	V391.799z M366.697,197.092v17.701h53.102v53.102H437.5v-70.803H366.697z M171.99,214.793h53.102v-17.701h-70.803v70.803h17.701
	V214.793z M171.99,338.697h-17.701V409.5h70.803v-17.701H171.99V338.697z"/>
</svg>
