<?xml version="1.0" encoding="utf-8"?>
<!-- Generator: Adobe Illustrator 17.0.0, SVG Export Plug-In . SVG Version: 6.00 Build 0)  -->
<!DOCTYPE svg PUBLIC "-//W3C//DTD SVG 1.1//EN" "http://www.w3.org/Graphics/SVG/1.1/DTD/svg11.dtd">
<svg version="1.1" id="Layer_1" xmlns="http://www.w3.org/2000/svg" xmlns:xlink="http://www.w3.org/1999/xlink" x="0px" y="0px"
	 width="600px" height="600px" viewBox="0 0 600 600" enable-background="new 0 0 600 600" xml:space="preserve">
<path fill-rule="evenodd" clip-rule="evenodd" fill="#FFFFFF" stroke="#FFFFFF" stroke-miterlimit="10" d="M590.778,591H9.667V9.889
	h581.111V591z M478.994,439.392l-62.947-65.515c16.589-26.951,26.494-58.795,26.494-93.177c0-95.691-74.511-173.255-166.438-173.255
	c-91.914,0-166.437,77.564-166.437,173.255s74.522,173.255,166.437,173.255c33.03,0,63.62-10.31,89.5-27.579l62.947,65.526
	c13.932,14.501,36.514,14.501,50.445,0C492.927,477.398,492.927,453.893,478.994,439.392z M394.986,280.699
	c0,68.354-53.219,123.753-118.883,123.753c-65.653,0-118.884-55.399-118.884-123.753c0-68.342,53.23-123.753,118.884-123.753
	C341.768,156.946,394.986,212.357,394.986,280.699z M299.88,354.951V305.45h47.554v-49.501H299.88v-49.502h-47.552v49.502h-47.553
	v49.501h47.554v49.501H299.88L299.88,354.951z"/>
</svg>
